<?xml version="1.0" encoding="UTF-8" standalone="no"?>
<!DOCTYPE svg PUBLIC "-//W3C//DTD SVG 1.1//EN"
 "http://www.w3.org/Graphics/SVG/1.1/DTD/svg11.dtd">
<!-- Generated by graphviz version 14.1.5 (20260411.2331)
 -->
<!-- Title: EventModel Pages: 1 -->
<svg width="1267pt" height="645pt"
 viewBox="0.00 0.00 1267.00 645" xmlns="http://www.w3.org/2000/svg" xmlns:xlink="http://www.w3.org/1999/xlink"><defs><marker id="em-arrow-3C4043" markerWidth="9" markerHeight="9" refX="6.5" refY="3" orient="auto" markerUnits="userSpaceOnUse"><path d="M0,0 L7,3 L0,6 Z" fill="#3C4043"/></marker><marker id="em-arrow-2B6CB0" markerWidth="9" markerHeight="9" refX="6.5" refY="3" orient="auto" markerUnits="userSpaceOnUse"><path d="M0,0 L7,3 L0,6 Z" fill="#2B6CB0"/></marker><marker id="em-arrow-2F855A" markerWidth="9" markerHeight="9" refX="6.5" refY="3" orient="auto" markerUnits="userSpaceOnUse"><path d="M0,0 L7,3 L0,6 Z" fill="#2F855A"/></marker><marker id="em-arrow-5F6368" markerWidth="9" markerHeight="9" refX="6.5" refY="3" orient="auto" markerUnits="userSpaceOnUse"><path d="M0,0 L7,3 L0,6 Z" fill="#5F6368"/></marker><marker id="em-arrow-B7791F" markerWidth="9" markerHeight="9" refX="6.5" refY="3" orient="auto" markerUnits="userSpaceOnUse"><path d="M0,0 L7,3 L0,6 Z" fill="#B7791F"/></marker></defs>
<g id="graph0" class="graph" transform="scale(1 1) rotate(0) translate(4 554.91)">
<title>EventModel</title>
<polygon fill="white" stroke="none" points="-4,4 -4,-554.91 1262.71,-554.91 1262.71,4 -4,4"/>
<text xml:space="preserve" text-anchor="middle" x="629.36" y="-529.81" font-family="Helvetica,sans-Serif" font-size="18.00">Order Fulfillment</text>
<!-- __row_0 -->
<g class="em-edges"><path fill="none" stroke="#3C4043" stroke-width="1.5" d="M172.71,-322.56 L172.71,-205.92" marker-end="url(#em-arrow-3C4043)"/><path fill="none" stroke="#2B6CB0" stroke-width="1.5" d="M172.71,-161.28 L172.71,-125.28" marker-end="url(#em-arrow-2B6CB0)"/><path fill="none" stroke="#2F855A" stroke-width="1.5" d="M341.71,-205.92 L341.71,-322.56" marker-end="url(#em-arrow-2F855A)"/><path fill="none" stroke="#3C4043" stroke-width="1.5" d="M510.71,-322.56 L510.71,-205.92" marker-end="url(#em-arrow-3C4043)"/><path fill="none" stroke="#2B6CB0" stroke-width="1.5" d="M510.71,-161.28 L510.71,-44.64" marker-end="url(#em-arrow-2B6CB0)"/><path fill="none" stroke="#2F855A" stroke-width="1.5" d="M679.71,-205.92 L679.71,-241.92" marker-end="url(#em-arrow-2F855A)"/><path fill="none" stroke="#2F855A" stroke-width="1.5" d="M848.71,-205.92 L848.71,-403.2" marker-end="url(#em-arrow-2F855A)"/><path fill="none" stroke="#5F6368" stroke-width="1.5" d="M848.71,-403.2 C848.71,-313.2 1017.71,-295.92 1017.71,-205.92" marker-end="url(#em-arrow-5F6368)"/><path fill="none" stroke="#2B6CB0" stroke-width="1.5" d="M1017.71,-161.28 L1017.71,-44.64" marker-end="url(#em-arrow-2B6CB0)"/><path fill="none" stroke="#2F855A" stroke-width="1.5" d="M1186.71,-205.92 L1186.71,-322.56" marker-end="url(#em-arrow-2F855A)"/><path fill="none" stroke="#B7791F" stroke-width="1.5" d="M172.71,-125.28 C172.71,-173.66 341.71,-112.9 341.71,-161.28" marker-end="url(#em-arrow-B7791F)"/><path fill="none" stroke="#B7791F" stroke-width="1.5" d="M510.71,-44.64 C510.71,-134.64 679.71,-71.28 679.71,-161.28" marker-end="url(#em-arrow-B7791F)"/><path fill="none" stroke="#B7791F" stroke-width="1.5" d="M510.71,-44.64 C510.71,-134.64 848.71,-71.28 848.71,-161.28" marker-end="url(#em-arrow-B7791F)"/><path fill="none" stroke="#B7791F" stroke-width="1.5" d="M1017.71,-44.64 C1017.71,-134.64 1186.71,-71.28 1186.71,-161.28" marker-end="url(#em-arrow-B7791F)"/></g><g id="node1" class="node">
<title>__row_0</title>
</g>
<!-- __row_1 -->
<g id="node2" class="node">
<title>__row_1</title>
<text xml:space="preserve" text-anchor="middle" x="37.71" y="-421.64" font-family="Helvetica,sans-Serif" font-size="10.00" fill="#5f6368">Automation</text>
</g>
<!-- __row_0&#45;&gt;__row_1 -->
<!-- __hdr_0 -->
<g id="node8" class="node">
<title>__hdr_0</title>
<polygon fill="#e3e7eb" stroke="#c7cdd4" points="244.71,-522.72 100.71,-522.72 100.71,-489.6 244.71,-489.6 244.71,-522.72"/>
<text xml:space="preserve" text-anchor="middle" x="172.71" y="-502.28" font-family="Helvetica,sans-Serif" font-weight="bold" font-size="10.00" fill="#1f2933">Browse Catalog</text>
</g>
<!-- __row_0&#45;&gt;__hdr_0 -->
<!-- __row_2 -->
<g id="node3" class="node">
<title>__row_2</title>
<text xml:space="preserve" text-anchor="middle" x="41.71" y="-341" font-family="Helvetica,sans-Serif" font-size="10.00" fill="#5f6368">Customer</text>
</g>
<!-- __row_1&#45;&gt;__row_2 -->
<!-- __ph_1_0 -->
<!-- __row_1&#45;&gt;__ph_1_0 -->
<!-- __row_3 -->
<g id="node4" class="node">
<title>__row_3</title>
<text xml:space="preserve" text-anchor="middle" x="43.71" y="-260.37" font-family="Helvetica,sans-Serif" font-size="10.00" fill="#5f6368">Manager</text>
</g>
<!-- __row_2&#45;&gt;__row_3 -->
<!-- product_catalog -->
<g id="node22" class="node">
<title>product_catalog</title>
<polygon fill="#ffffff" stroke="#9aa0a6" stroke-width="1.3" points="244.71,-367.2 100.71,-367.2 100.71,-322.56 244.71,-322.56 244.71,-367.2"/>
<text xml:space="preserve" text-anchor="middle" x="172.71" y="-340.43" font-family="Helvetica,sans-Serif" font-size="11.00" fill="#202124">Product Catalog</text>
</g>
<!-- __row_2&#45;&gt;product_catalog -->
<!-- __row_4 -->
<g id="node5" class="node">
<title>__row_4</title>
<text xml:space="preserve" text-anchor="middle" x="45.71" y="-179.73" font-family="Helvetica,sans-Serif" font-size="10.00" fill="#5f6368">API</text>
</g>
<!-- __row_3&#45;&gt;__row_4 -->
<!-- __ph_3_0 -->
<!-- __row_3&#45;&gt;__ph_3_0 -->
<!-- __row_5 -->
<g id="node6" class="node">
<title>__row_5</title>
<text xml:space="preserve" text-anchor="middle" x="45.71" y="-99.09" font-family="Helvetica,sans-Serif" font-size="10.00" fill="#5f6368">Order</text>
</g>
<!-- __row_4&#45;&gt;__row_5 -->
<!-- place_order -->
<g id="node36" class="node">
<title>place_order</title>
<path fill="#b8d0f5" stroke="#2b6cb0" stroke-width="1.3" d="M232.71,-205.92C232.71,-205.92 112.71,-205.92 112.71,-205.92 106.71,-205.92 100.71,-199.92 100.71,-193.92 100.71,-193.92 100.71,-173.28 100.71,-173.28 100.71,-167.28 106.71,-161.28 112.71,-161.28 112.71,-161.28 232.71,-161.28 232.71,-161.28 238.71,-161.28 244.71,-167.28 244.71,-173.28 244.71,-173.28 244.71,-193.92 244.71,-193.92 244.71,-199.92 238.71,-205.92 232.71,-205.92"/>
<text xml:space="preserve" text-anchor="middle" x="172.71" y="-179.15" font-family="Helvetica,sans-Serif" font-size="11.00" fill="#10243e">Place Order</text>
</g>
<!-- __row_4&#45;&gt;place_order -->
<!-- __row_6 -->
<g id="node7" class="node">
<title>__row_6</title>
<text xml:space="preserve" text-anchor="middle" x="43.71" y="-18.45" font-family="Helvetica,sans-Serif" font-size="10.00" fill="#5f6368">Payment</text>
</g>
<!-- __row_5&#45;&gt;__row_6 -->
<!-- order_placed -->
<g id="node43" class="node">
<title>order_placed</title>
<path fill="#f6b26b" stroke="#b7791f" stroke-width="1.3" d="M232.71,-125.28C232.71,-125.28 112.71,-125.28 112.71,-125.28 106.71,-125.28 100.71,-119.28 100.71,-113.28 100.71,-113.28 100.71,-92.64 100.71,-92.64 100.71,-86.64 106.71,-80.64 112.71,-80.64 112.71,-80.64 232.71,-80.64 232.71,-80.64 238.71,-80.64 244.71,-86.64 244.71,-92.64 244.71,-92.64 244.71,-113.28 244.71,-113.28 244.71,-119.28 238.71,-125.28 232.71,-125.28"/>
<text xml:space="preserve" text-anchor="middle" x="172.71" y="-98.51" font-family="Helvetica,sans-Serif" font-size="11.00" fill="#3f2a06">Order Placed</text>
</g>
<!-- __row_5&#45;&gt;order_placed -->
<!-- __ph_6_0 -->
<!-- __row_6&#45;&gt;__ph_6_0 -->
<!-- __hdr_1 -->
<g id="node9" class="node">
<title>__hdr_1</title>
<polygon fill="#e3e7eb" stroke="#c7cdd4" points="413.71,-522.72 269.71,-522.72 269.71,-489.6 413.71,-489.6 413.71,-522.72"/>
<text xml:space="preserve" text-anchor="middle" x="341.71" y="-502.28" font-family="Helvetica,sans-Serif" font-weight="bold" font-size="10.00" fill="#1f2933">View Open Orders</text>
</g>
<!-- __hdr_0&#45;&gt;__hdr_1 -->
<!-- __hdr_0&#45;&gt;__ph_1_0 -->
<!-- __hdr_2 -->
<g id="node10" class="node">
<title>__hdr_2</title>
<polygon fill="#e3e7eb" stroke="#c7cdd4" points="582.71,-522.72 438.71,-522.72 438.71,-489.6 582.71,-489.6 582.71,-522.72"/>
<text xml:space="preserve" text-anchor="middle" x="510.71" y="-502.28" font-family="Helvetica,sans-Serif" font-weight="bold" font-size="10.00" fill="#1f2933">Checkout</text>
</g>
<!-- __hdr_1&#45;&gt;__hdr_2 -->
<!-- __ph_1_1 -->
<!-- __hdr_1&#45;&gt;__ph_1_1 -->
<!-- __hdr_3 -->
<g id="node11" class="node">
<title>__hdr_3</title>
<polygon fill="#e3e7eb" stroke="#c7cdd4" points="751.71,-522.72 607.71,-522.72 607.71,-489.6 751.71,-489.6 751.71,-522.72"/>
<text xml:space="preserve" text-anchor="middle" x="679.71" y="-502.28" font-family="Helvetica,sans-Serif" font-weight="bold" font-size="10.00" fill="#1f2933">Manager Review</text>
</g>
<!-- __hdr_2&#45;&gt;__hdr_3 -->
<!-- __ph_1_2 -->
<!-- __hdr_2&#45;&gt;__ph_1_2 -->
<!-- __hdr_4 -->
<g id="node12" class="node">
<title>__hdr_4</title>
<polygon fill="#e3e7eb" stroke="#c7cdd4" points="920.71,-522.72 776.71,-522.72 776.71,-489.6 920.71,-489.6 920.71,-522.72"/>
<text xml:space="preserve" text-anchor="middle" x="848.71" y="-502.28" font-family="Helvetica,sans-Serif" font-weight="bold" font-size="10.00" fill="#1f2933">Payments To Process</text>
</g>
<!-- __hdr_3&#45;&gt;__hdr_4 -->
<!-- __ph_1_3 -->
<!-- __hdr_3&#45;&gt;__ph_1_3 -->
<!-- __hdr_5 -->
<g id="node13" class="node">
<title>__hdr_5</title>
<polygon fill="#e3e7eb" stroke="#c7cdd4" points="1089.71,-522.72 945.71,-522.72 945.71,-489.6 1089.71,-489.6 1089.71,-522.72"/>
<text xml:space="preserve" text-anchor="middle" x="1017.71" y="-502.28" font-family="Helvetica,sans-Serif" font-weight="bold" font-size="10.00" fill="#1f2933">Capture Payment</text>
</g>
<!-- __hdr_4&#45;&gt;__hdr_5 -->
<!-- payment_gateway -->
<g id="node19" class="node">
<title>payment_gateway</title>
<path fill="#dbdbdb" stroke="#5f6368" stroke-width="1.3" d="M908.71,-447.84C908.71,-447.84 788.71,-447.84 788.71,-447.84 782.71,-447.84 776.71,-441.84 776.71,-435.84 776.71,-435.84 776.71,-415.2 776.71,-415.2 776.71,-409.2 782.71,-403.2 788.71,-403.2 788.71,-403.2 908.71,-403.2 908.71,-403.2 914.71,-403.2 920.71,-409.2 920.71,-415.2 920.71,-415.2 920.71,-435.84 920.71,-435.84 920.71,-441.84 914.71,-447.84 908.71,-447.84"/>
<text xml:space="preserve" text-anchor="middle" x="848.71" y="-421.07" font-family="Helvetica,sans-Serif" font-size="11.00" fill="#202124">Payment Gateway</text>
</g>
<!-- __hdr_4&#45;&gt;payment_gateway -->
<!-- __hdr_6 -->
<g id="node14" class="node">
<title>__hdr_6</title>
<polygon fill="#e3e7eb" stroke="#c7cdd4" points="1258.71,-522.72 1114.71,-522.72 1114.71,-489.6 1258.71,-489.6 1258.71,-522.72"/>
<text xml:space="preserve" text-anchor="middle" x="1186.71" y="-502.28" font-family="Helvetica,sans-Serif" font-weight="bold" font-size="10.00" fill="#1f2933">Show Receipt</text>
</g>
<!-- __hdr_5&#45;&gt;__hdr_6 -->
<!-- __ph_1_5 -->
<!-- __hdr_5&#45;&gt;__ph_1_5 -->
<!-- __ph_1_6 -->
<!-- __hdr_6&#45;&gt;__ph_1_6 -->
<!-- __ph_1_0&#45;&gt;__ph_1_1 -->
<!-- __ph_1_0&#45;&gt;product_catalog -->
<!-- __ph_1_1&#45;&gt;__ph_1_2 -->
<!-- order_list -->
<g id="node23" class="node">
<title>order_list</title>
<polygon fill="#ffffff" stroke="#9aa0a6" stroke-width="1.3" points="413.71,-367.2 269.71,-367.2 269.71,-322.56 413.71,-322.56 413.71,-367.2"/>
<text xml:space="preserve" text-anchor="middle" x="341.71" y="-340.43" font-family="Helvetica,sans-Serif" font-size="11.00" fill="#202124">Order List</text>
</g>
<!-- __ph_1_1&#45;&gt;order_list -->
<!-- __ph_1_2&#45;&gt;__ph_1_3 -->
<!-- checkout_screen -->
<g id="node24" class="node">
<title>checkout_screen</title>
<polygon fill="#ffffff" stroke="#9aa0a6" stroke-width="1.3" points="582.71,-367.2 438.71,-367.2 438.71,-322.56 582.71,-322.56 582.71,-367.2"/>
<text xml:space="preserve" text-anchor="middle" x="510.71" y="-340.43" font-family="Helvetica,sans-Serif" font-size="11.00" fill="#202124">Checkout Screen</text>
</g>
<!-- __ph_1_2&#45;&gt;checkout_screen -->
<!-- __ph_1_3&#45;&gt;payment_gateway -->
<!-- __ph_2_3 -->
<!-- __ph_1_3&#45;&gt;__ph_2_3 -->
<!-- payment_gateway&#45;&gt;__ph_1_5 -->
<!-- __ph_2_4 -->
<!-- payment_gateway&#45;&gt;__ph_2_4 -->
<!-- __ph_1_5&#45;&gt;__ph_1_6 -->
<!-- __ph_2_5 -->
<!-- __ph_1_5&#45;&gt;__ph_2_5 -->
<!-- receipt_screen -->
<g id="node28" class="node">
<title>receipt_screen</title>
<polygon fill="#ffffff" stroke="#9aa0a6" stroke-width="1.3" points="1258.71,-367.2 1114.71,-367.2 1114.71,-322.56 1258.71,-322.56 1258.71,-367.2"/>
<text xml:space="preserve" text-anchor="middle" x="1186.71" y="-340.43" font-family="Helvetica,sans-Serif" font-size="11.00" fill="#202124">Receipt Screen</text>
</g>
<!-- __ph_1_6&#45;&gt;receipt_screen -->
<!-- product_catalog&#45;&gt;order_list -->
<!-- product_catalog&#45;&gt;__ph_3_0 -->
<!-- order_list&#45;&gt;checkout_screen -->
<!-- __ph_3_1 -->
<!-- order_list&#45;&gt;__ph_3_1 -->
<!-- checkout_screen&#45;&gt;__ph_2_3 -->
<!-- __ph_3_2 -->
<!-- checkout_screen&#45;&gt;__ph_3_2 -->
<!-- __ph_2_3&#45;&gt;__ph_2_4 -->
<!-- payment_dashboard -->
<g id="node32" class="node">
<title>payment_dashboard</title>
<polygon fill="#ffffff" stroke="#9aa0a6" stroke-width="1.3" points="751.71,-286.56 607.71,-286.56 607.71,-241.92 751.71,-241.92 751.71,-286.56"/>
<text xml:space="preserve" text-anchor="middle" x="679.71" y="-259.79" font-family="Helvetica,sans-Serif" font-size="11.00" fill="#202124">Payment Dashboard</text>
</g>
<!-- __ph_2_3&#45;&gt;payment_dashboard -->
<!-- __ph_2_4&#45;&gt;__ph_2_5 -->
<!-- __ph_3_4 -->
<!-- __ph_2_4&#45;&gt;__ph_3_4 -->
<!-- __ph_2_5&#45;&gt;receipt_screen -->
<!-- __ph_3_5 -->
<!-- __ph_2_5&#45;&gt;__ph_3_5 -->
<!-- __ph_3_6 -->
<!-- receipt_screen&#45;&gt;__ph_3_6 -->
<!-- __ph_3_0&#45;&gt;__ph_3_1 -->
<!-- __ph_3_0&#45;&gt;place_order -->
<!-- __ph_3_1&#45;&gt;__ph_3_2 -->
<!-- open_orders -->
<g id="node37" class="node">
<title>open_orders</title>
<path fill="#c6e7c6" stroke="#2f855a" stroke-width="1.3" d="M401.71,-205.92C401.71,-205.92 281.71,-205.92 281.71,-205.92 275.71,-205.92 269.71,-199.92 269.71,-193.92 269.71,-193.92 269.71,-173.28 269.71,-173.28 269.71,-167.28 275.71,-161.28 281.71,-161.28 281.71,-161.28 401.71,-161.28 401.71,-161.28 407.71,-161.28 413.71,-167.28 413.71,-173.28 413.71,-173.28 413.71,-193.92 413.71,-193.92 413.71,-199.92 407.71,-205.92 401.71,-205.92"/>
<text xml:space="preserve" text-anchor="middle" x="341.71" y="-179.15" font-family="Helvetica,sans-Serif" font-size="11.00" fill="#173f25">Open Orders</text>
</g>
<!-- __ph_3_1&#45;&gt;open_orders -->
<!-- __ph_3_2&#45;&gt;payment_dashboard -->
<!-- submit_payment -->
<g id="node38" class="node">
<title>submit_payment</title>
<path fill="#b8d0f5" stroke="#2b6cb0" stroke-width="1.3" d="M570.71,-205.92C570.71,-205.92 450.71,-205.92 450.71,-205.92 444.71,-205.92 438.71,-199.92 438.71,-193.92 438.71,-193.92 438.71,-173.28 438.71,-173.28 438.71,-167.28 444.71,-161.28 450.71,-161.28 450.71,-161.28 570.71,-161.28 570.71,-161.28 576.71,-161.28 582.71,-167.28 582.71,-173.28 582.71,-173.28 582.71,-193.92 582.71,-193.92 582.71,-199.92 576.71,-205.92 570.71,-205.92"/>
<text xml:space="preserve" text-anchor="middle" x="510.71" y="-179.15" font-family="Helvetica,sans-Serif" font-size="11.00" fill="#10243e">Submit Payment</text>
</g>
<!-- __ph_3_2&#45;&gt;submit_payment -->
<!-- payment_dashboard&#45;&gt;__ph_3_4 -->
<!-- pending_payments -->
<g id="node39" class="node">
<title>pending_payments</title>
<path fill="#c6e7c6" stroke="#2f855a" stroke-width="1.3" d="M739.71,-205.92C739.71,-205.92 619.71,-205.92 619.71,-205.92 613.71,-205.92 607.71,-199.92 607.71,-193.92 607.71,-193.92 607.71,-173.28 607.71,-173.28 607.71,-167.28 613.71,-161.28 619.71,-161.28 619.71,-161.28 739.71,-161.28 739.71,-161.28 745.71,-161.28 751.71,-167.28 751.71,-173.28 751.71,-173.28 751.71,-193.92 751.71,-193.92 751.71,-199.92 745.71,-205.92 739.71,-205.92"/>
<text xml:space="preserve" text-anchor="middle" x="679.71" y="-179.15" font-family="Helvetica,sans-Serif" font-size="11.00" fill="#173f25">Pending Payments</text>
</g>
<!-- payment_dashboard&#45;&gt;pending_payments -->
<!-- __ph_3_4&#45;&gt;__ph_3_5 -->
<!-- payments_to_process -->
<g id="node40" class="node">
<title>payments_to_process</title>
<path fill="#c6e7c6" stroke="#2f855a" stroke-width="1.3" d="M908.71,-205.92C908.71,-205.92 788.71,-205.92 788.71,-205.92 782.71,-205.92 776.71,-199.92 776.71,-193.92 776.71,-193.92 776.71,-173.28 776.71,-173.28 776.71,-167.28 782.71,-161.28 788.71,-161.28 788.71,-161.28 908.71,-161.28 908.71,-161.28 914.71,-161.28 920.71,-167.28 920.71,-173.28 920.71,-173.28 920.71,-193.92 920.71,-193.92 920.71,-199.92 914.71,-205.92 908.71,-205.92"/>
<text xml:space="preserve" text-anchor="middle" x="848.71" y="-185.15" font-family="Helvetica,sans-Serif" font-size="11.00" fill="#173f25">Payments To</text>
<text xml:space="preserve" text-anchor="middle" x="848.71" y="-173.15" font-family="Helvetica,sans-Serif" font-size="11.00" fill="#173f25">Process</text>
</g>
<!-- __ph_3_4&#45;&gt;payments_to_process -->
<!-- __ph_3_5&#45;&gt;__ph_3_6 -->
<!-- capture_payment -->
<g id="node41" class="node">
<title>capture_payment</title>
<path fill="#b8d0f5" stroke="#2b6cb0" stroke-width="1.3" d="M1077.71,-205.92C1077.71,-205.92 957.71,-205.92 957.71,-205.92 951.71,-205.92 945.71,-199.92 945.71,-193.92 945.71,-193.92 945.71,-173.28 945.71,-173.28 945.71,-167.28 951.71,-161.28 957.71,-161.28 957.71,-161.28 1077.71,-161.28 1077.71,-161.28 1083.71,-161.28 1089.71,-167.28 1089.71,-173.28 1089.71,-173.28 1089.71,-193.92 1089.71,-193.92 1089.71,-199.92 1083.71,-205.92 1077.71,-205.92"/>
<text xml:space="preserve" text-anchor="middle" x="1017.71" y="-179.15" font-family="Helvetica,sans-Serif" font-size="11.00" fill="#10243e">Capture Payment</text>
</g>
<!-- __ph_3_5&#45;&gt;capture_payment -->
<!-- receipts -->
<g id="node42" class="node">
<title>receipts</title>
<path fill="#c6e7c6" stroke="#2f855a" stroke-width="1.3" d="M1246.71,-205.92C1246.71,-205.92 1126.71,-205.92 1126.71,-205.92 1120.71,-205.92 1114.71,-199.92 1114.71,-193.92 1114.71,-193.92 1114.71,-173.28 1114.71,-173.28 1114.71,-167.28 1120.71,-161.28 1126.71,-161.28 1126.71,-161.28 1246.71,-161.28 1246.71,-161.28 1252.71,-161.28 1258.71,-167.28 1258.71,-173.28 1258.71,-173.28 1258.71,-193.92 1258.71,-193.92 1258.71,-199.92 1252.71,-205.92 1246.71,-205.92"/>
<text xml:space="preserve" text-anchor="middle" x="1186.71" y="-179.15" font-family="Helvetica,sans-Serif" font-size="11.00" fill="#173f25">Receipts</text>
</g>
<!-- __ph_3_6&#45;&gt;receipts -->
<!-- place_order&#45;&gt;open_orders -->
<!-- place_order&#45;&gt;order_placed -->
<!-- open_orders&#45;&gt;submit_payment -->
<!-- __ph_5_1 -->
<!-- open_orders&#45;&gt;__ph_5_1 -->
<!-- submit_payment&#45;&gt;pending_payments -->
<!-- __ph_5_2 -->
<!-- submit_payment&#45;&gt;__ph_5_2 -->
<!-- pending_payments&#45;&gt;payments_to_process -->
<!-- __ph_5_3 -->
<!-- pending_payments&#45;&gt;__ph_5_3 -->
<!-- payments_to_process&#45;&gt;capture_payment -->
<!-- __ph_5_4 -->
<!-- payments_to_process&#45;&gt;__ph_5_4 -->
<!-- capture_payment&#45;&gt;receipts -->
<!-- __ph_5_5 -->
<!-- capture_payment&#45;&gt;__ph_5_5 -->
<!-- __ph_5_6 -->
<!-- receipts&#45;&gt;__ph_5_6 -->
<!-- order_placed&#45;&gt;__ph_5_1 -->
<!-- order_placed&#45;&gt;__ph_6_0 -->
<!-- __ph_5_1&#45;&gt;__ph_5_2 -->
<!-- __ph_6_1 -->
<!-- __ph_5_1&#45;&gt;__ph_6_1 -->
<!-- __ph_5_2&#45;&gt;__ph_5_3 -->
<!-- payment_requested -->
<g id="node52" class="node">
<title>payment_requested</title>
<path fill="#f6b26b" stroke="#b7791f" stroke-width="1.3" d="M570.71,-44.64C570.71,-44.64 450.71,-44.64 450.71,-44.64 444.71,-44.64 438.71,-38.64 438.71,-32.64 438.71,-32.64 438.71,-12 438.71,-12 438.71,-6 444.71,0 450.71,0 450.71,0 570.71,0 570.71,0 576.71,0 582.71,-6 582.71,-12 582.71,-12 582.71,-32.64 582.71,-32.64 582.71,-38.64 576.71,-44.64 570.71,-44.64"/>
<text xml:space="preserve" text-anchor="middle" x="510.71" y="-17.87" font-family="Helvetica,sans-Serif" font-size="11.00" fill="#3f2a06">Payment Requested</text>
</g>
<!-- __ph_5_2&#45;&gt;payment_requested -->
<!-- __ph_5_3&#45;&gt;__ph_5_4 -->
<!-- __ph_6_3 -->
<!-- __ph_5_3&#45;&gt;__ph_6_3 -->
<!-- __ph_5_4&#45;&gt;__ph_5_5 -->
<!-- __ph_6_4 -->
<!-- __ph_5_4&#45;&gt;__ph_6_4 -->
<!-- __ph_5_5&#45;&gt;__ph_5_6 -->
<!-- payment_captured -->
<g id="node55" class="node">
<title>payment_captured</title>
<path fill="#f6b26b" stroke="#b7791f" stroke-width="1.3" d="M1077.71,-44.64C1077.71,-44.64 957.71,-44.64 957.71,-44.64 951.71,-44.64 945.71,-38.64 945.71,-32.64 945.71,-32.64 945.71,-12 945.71,-12 945.71,-6 951.71,0 957.71,0 957.71,0 1077.71,0 1077.71,0 1083.71,0 1089.71,-6 1089.71,-12 1089.71,-12 1089.71,-32.64 1089.71,-32.64 1089.71,-38.64 1083.71,-44.64 1077.71,-44.64"/>
<text xml:space="preserve" text-anchor="middle" x="1017.71" y="-17.87" font-family="Helvetica,sans-Serif" font-size="11.00" fill="#3f2a06">Payment Captured</text>
</g>
<!-- __ph_5_5&#45;&gt;payment_captured -->
<!-- __ph_6_6 -->
<!-- __ph_5_6&#45;&gt;__ph_6_6 -->
<!-- __ph_6_0&#45;&gt;__ph_6_1 -->
<!-- __ph_6_1&#45;&gt;payment_requested -->
<!-- payment_requested&#45;&gt;__ph_6_3 -->
<!-- __ph_6_3&#45;&gt;__ph_6_4 -->
<!-- __ph_6_4&#45;&gt;payment_captured -->
<!-- payment_captured&#45;&gt;__ph_6_6 -->
<g class="em-notes"><a xlink:href="notes/order-placed.md" href="notes/order-placed.md" target="_blank"><title>1. notes/order-placed.md</title><path d="M226.71,-120.28 L239.71,-120.28 L239.71,-107.28 Z" fill="#F4C430" stroke="#7A5200" stroke-width="1" stroke-linejoin="round"/><path d="M226.71,-120.28 L239.71,-107.28" fill="none" stroke="#7A5200" stroke-width="0.7"/><text x="224.71" y="-111.28" text-anchor="end" font-family="Helvetica" font-weight="bold" font-size="10" fill="#7A5200">1</text></a><a xlink:href="notes/capture-payment.md" href="notes/capture-payment.md" target="_blank"><title>2. notes/capture-payment.md</title><path d="M1071.71,-200.92 L1084.71,-200.92 L1084.71,-187.92 Z" fill="#F4C430" stroke="#7A5200" stroke-width="1" stroke-linejoin="round"/><path d="M1071.71,-200.92 L1084.71,-187.92" fill="none" stroke="#7A5200" stroke-width="0.7"/><text x="1069.71" y="-191.92" text-anchor="end" font-family="Helvetica" font-weight="bold" font-size="10" fill="#7A5200">2</text></a></g></g>
<g class="em-note-legend"><rect x="0" y="559" width="1267" height="86" fill="#FFFFFF"/><line x1="0" y1="559" x2="1267" y2="559" stroke="#D0D0D0" stroke-width="1"/><text x="16" y="587" font-family="Helvetica" font-weight="bold" font-size="12" fill="#202124">Notes</text><a xlink:href="notes/order-placed.md" href="notes/order-placed.md" target="_blank"><text x="16" y="608" font-family="Helvetica" font-size="11" fill="#202124"><tspan font-weight="bold" fill="#7A5200">1.</tspan><tspan dx="6">Order Placed</tspan><tspan dx="6" fill="#5F6368">— notes/order-placed.md</tspan></text></a><a xlink:href="notes/capture-payment.md" href="notes/capture-payment.md" target="_blank"><text x="16" y="626" font-family="Helvetica" font-size="11" fill="#202124"><tspan font-weight="bold" fill="#7A5200">2.</tspan><tspan dx="6">Capture Payment</tspan><tspan dx="6" fill="#5F6368">— notes/capture-payment.md</tspan></text></a></g></svg>
