<?xml version="1.0" encoding="UTF-8" standalone="no"?>
<!DOCTYPE svg PUBLIC "-//W3C//DTD SVG 1.1//EN"
 "http://www.w3.org/Graphics/SVG/1.1/DTD/svg11.dtd">
<!-- Generated by graphviz version 15.0.0 (0)
 -->
<!-- Title: EventModel Pages: 1 -->
<svg width="430pt" height="322pt"
 viewBox="0.00 0.00 430.00 322.00" xmlns="http://www.w3.org/2000/svg" xmlns:xlink="http://www.w3.org/1999/xlink"><defs><marker id="em-arrow-3C4043" markerWidth="9" markerHeight="9" refX="6.5" refY="3" orient="auto" markerUnits="userSpaceOnUse"><path d="M0,0 L7,3 L0,6 Z" fill="#3C4043"/></marker><marker id="em-arrow-2B6CB0" markerWidth="9" markerHeight="9" refX="6.5" refY="3" orient="auto" markerUnits="userSpaceOnUse"><path d="M0,0 L7,3 L0,6 Z" fill="#2B6CB0"/></marker><marker id="em-arrow-2F855A" markerWidth="9" markerHeight="9" refX="6.5" refY="3" orient="auto" markerUnits="userSpaceOnUse"><path d="M0,0 L7,3 L0,6 Z" fill="#2F855A"/></marker><marker id="em-arrow-B7791F" markerWidth="9" markerHeight="9" refX="6.5" refY="3" orient="auto" markerUnits="userSpaceOnUse"><path d="M0,0 L7,3 L0,6 Z" fill="#B7791F"/></marker></defs><metadata id="em-slices">{"slices":[{"index":0,"name":"Record Payment","x0":112.86,"x1":256.86},{"index":1,"name":"View Payments","x0":281.86,"x1":425.86}],"rowLabels":{"x0":-23.14,"x1":114.86}}</metadata><style>.em-slice-dim{opacity:.15;transition:opacity .15s ease}</style>
<g id="graph0" class="graph" transform="scale(1 1) rotate(0) translate(4 317.52)">
<title>EventModel</title>
<polygon fill="white" stroke="none" points="-4,4 -4,-317.52 425.86,-317.52 425.86,4 -4,4"/>
<text xml:space="preserve" text-anchor="middle" x="210.93" y="-293.32" font-family="Helvetica,sans-Serif" font-size="18.00">Renames</text>
<!-- __row_0 -->
<g class="em-edges"><path fill="none" stroke="#3C4043" stroke-width="1.5" d="M180.86,-162.48 L180.86,-126.24" marker-end="url(#em-arrow-3C4043)"/><path fill="none" stroke="#2B6CB0" stroke-width="1.5" d="M180.86,-81.12 L180.86,-45.12" marker-end="url(#em-arrow-2B6CB0)"/><path fill="none" stroke="#2F855A" stroke-width="1.5" d="M349.86,-126.24 L349.86,-162.48" marker-end="url(#em-arrow-2F855A)"/><path fill="none" stroke="#B7791F" stroke-width="1.5" d="M180.86,-45.12 C180.86,-93.79 349.86,-32.45 349.86,-81.12" marker-end="url(#em-arrow-B7791F)"/></g><g id="node1" class="node">
<title>__row_0</title>
</g>
<!-- __row_1 -->
<g id="node2" class="node">
<title>__row_1</title>
<text xml:space="preserve" text-anchor="middle" x="41.86" y="-181.8" font-family="Helvetica,sans-Serif" font-size="10.00" fill="#5f6368">Billing Admin</text>
</g>
<!-- __row_0&#45;&gt;__row_1 -->
<!-- __hdr_0 -->
<g id="node5" class="node">
<title>__hdr_0</title>
<polygon fill="#e3e7eb" stroke="#c7cdd4" points="252.86,-282.48 108.86,-282.48 108.86,-249.36 252.86,-249.36 252.86,-282.48"/>
<text xml:space="preserve" text-anchor="middle" x="180.86" y="-262.92" font-family="Helvetica,sans-Serif" font-weight="bold" font-size="10.00" fill="#1f2933">Record Payment</text>
</g>
<!-- __row_0&#45;&gt;__hdr_0 -->
<!-- __row_2 -->
<g id="node3" class="node">
<title>__row_2</title>
<text xml:space="preserve" text-anchor="middle" x="56.86" y="-100.68" font-family="Helvetica,sans-Serif" font-size="10.00" fill="#5f6368">API</text>
</g>
<!-- __row_1&#45;&gt;__row_2 -->
<!-- payment_entry -->
<g data-slice="0" id="node7" class="node">
<title>payment_entry</title>
<polygon fill="#ffffff" stroke="#9aa0a6" stroke-width="1.3" points="252.86,-207.12 108.86,-207.12 108.86,-162.48 252.86,-162.48 252.86,-207.12"/>
<text xml:space="preserve" text-anchor="middle" x="180.86" y="-181.5" font-family="Helvetica,sans-Serif" font-size="11.00" fill="#202124">Payment Entry</text>
</g>
<!-- __row_1&#45;&gt;payment_entry -->
<!-- __row_3 -->
<g id="node4" class="node">
<title>__row_3</title>
<text xml:space="preserve" text-anchor="middle" x="56.86" y="-19.56" font-family="Helvetica,sans-Serif" font-size="10.00" fill="#5f6368">Billing</text>
</g>
<!-- __row_2&#45;&gt;__row_3 -->
<!-- recordpayment -->
<g data-slice="0" id="node9" class="node">
<title>recordpayment</title>
<path fill="#b8d0f5" stroke="#2b6cb0" stroke-width="1.3" d="M240.86,-126.24C240.86,-126.24 120.86,-126.24 120.86,-126.24 114.86,-126.24 108.86,-120.24 108.86,-114.24 108.86,-114.24 108.86,-93.12 108.86,-93.12 108.86,-87.12 114.86,-81.12 120.86,-81.12 120.86,-81.12 240.86,-81.12 240.86,-81.12 246.86,-81.12 252.86,-87.12 252.86,-93.12 252.86,-93.12 252.86,-114.24 252.86,-114.24 252.86,-120.24 246.86,-126.24 240.86,-126.24"/>
<text xml:space="preserve" text-anchor="start" x="138.99" y="-114.18" font-family="Helvetica,sans-Serif" font-weight="bold" font-size="11.00" fill="#10243e">RecordPayment</text>
<text xml:space="preserve" text-anchor="start" x="138.99" y="-100.78" font-family="Helvetica,sans-Serif" font-size="9.00" fill="#10243e">orderId : </text>
<text xml:space="preserve" text-anchor="start" x="175" y="-100.78" font-family="Helvetica,sans-Serif" font-size="9.00" fill="#5f6368">UUID</text>
<text xml:space="preserve" text-anchor="start" x="138.99" y="-87.98" font-family="Helvetica,sans-Serif" font-size="9.00" fill="#10243e">amountCents : </text>
<text xml:space="preserve" text-anchor="start" x="200.02" y="-87.98" font-family="Helvetica,sans-Serif" font-size="9.00" fill="#5f6368">long</text>
<polygon fill="#2b6cb0" stroke="#2b6cb0" points="137.99,-108.88 137.99,-108.88 223.74,-108.88 223.74,-108.88 137.99,-108.88"/>
</g>
<!-- __row_2&#45;&gt;recordpayment -->
<!-- paymentrecorded -->
<g data-slice="0" id="node11" class="node">
<title>paymentrecorded</title>
<path fill="#f6b26b" stroke="#b7791f" stroke-width="1.3" d="M240.86,-45.12C240.86,-45.12 120.86,-45.12 120.86,-45.12 114.86,-45.12 108.86,-39.12 108.86,-33.12 108.86,-33.12 108.86,-12 108.86,-12 108.86,-6 114.86,0 120.86,0 120.86,0 240.86,0 240.86,0 246.86,0 252.86,-6 252.86,-12 252.86,-12 252.86,-33.12 252.86,-33.12 252.86,-39.12 246.86,-45.12 240.86,-45.12"/>
<text xml:space="preserve" text-anchor="start" x="132.57" y="-33.06" font-family="Helvetica,sans-Serif" font-weight="bold" font-size="11.00" fill="#3f2a06">PaymentRecorded</text>
<text xml:space="preserve" text-anchor="start" x="132.57" y="-19.66" font-family="Helvetica,sans-Serif" font-size="9.00" fill="#3f2a06">orderId : </text>
<text xml:space="preserve" text-anchor="start" x="168.58" y="-19.66" font-family="Helvetica,sans-Serif" font-size="9.00" fill="#5f6368">UUID</text>
<text xml:space="preserve" text-anchor="start" x="132.57" y="-6.86" font-family="Helvetica,sans-Serif" font-size="9.00" fill="#3f2a06">amountCents : </text>
<text xml:space="preserve" text-anchor="start" x="193.6" y="-6.86" font-family="Helvetica,sans-Serif" font-size="9.00" fill="#5f6368">long</text>
<polygon fill="#b7791f" stroke="#b7791f" points="131.57,-27.76 131.57,-27.76 230.16,-27.76 230.16,-27.76 131.57,-27.76"/>
</g>
<!-- __row_3&#45;&gt;paymentrecorded -->
<!-- __hdr_1 -->
<g id="node6" class="node">
<title>__hdr_1</title>
<polygon fill="#e3e7eb" stroke="#c7cdd4" points="421.86,-282.48 277.86,-282.48 277.86,-249.36 421.86,-249.36 421.86,-282.48"/>
<text xml:space="preserve" text-anchor="middle" x="349.86" y="-262.92" font-family="Helvetica,sans-Serif" font-weight="bold" font-size="10.00" fill="#1f2933">View Payments</text>
</g>
<!-- __hdr_0&#45;&gt;__hdr_1 -->
<!-- __hdr_0&#45;&gt;payment_entry -->
<!-- payment_list -->
<g data-slice="1" id="node8" class="node">
<title>payment_list</title>
<polygon fill="#ffffff" stroke="#9aa0a6" stroke-width="1.3" points="421.86,-207.12 277.86,-207.12 277.86,-162.48 421.86,-162.48 421.86,-207.12"/>
<text xml:space="preserve" text-anchor="middle" x="349.86" y="-181.5" font-family="Helvetica,sans-Serif" font-size="11.00" fill="#202124">Payment List</text>
</g>
<!-- __hdr_1&#45;&gt;payment_list -->
<!-- payment_entry&#45;&gt;payment_list -->
<!-- payment_entry&#45;&gt;recordpayment -->
<!-- payments -->
<g data-slice="1" id="node10" class="node">
<title>payments</title>
<path fill="#c6e7c6" stroke="#2f855a" stroke-width="1.3" d="M409.86,-126.24C409.86,-126.24 289.86,-126.24 289.86,-126.24 283.86,-126.24 277.86,-120.24 277.86,-114.24 277.86,-114.24 277.86,-93.12 277.86,-93.12 277.86,-87.12 283.86,-81.12 289.86,-81.12 289.86,-81.12 409.86,-81.12 409.86,-81.12 415.86,-81.12 421.86,-87.12 421.86,-93.12 421.86,-93.12 421.86,-114.24 421.86,-114.24 421.86,-120.24 415.86,-126.24 409.86,-126.24"/>
<text xml:space="preserve" text-anchor="start" x="323.88" y="-114.18" font-family="Helvetica,sans-Serif" font-weight="bold" font-size="11.00" fill="#173f25">Payments</text>
<text xml:space="preserve" text-anchor="start" x="310.84" y="-100.78" font-family="Helvetica,sans-Serif" font-size="9.00" fill="#173f25">orderId : </text>
<text xml:space="preserve" text-anchor="start" x="346.86" y="-100.78" font-family="Helvetica,sans-Serif" font-size="9.00" fill="#5f6368">UUID</text>
<text xml:space="preserve" text-anchor="start" x="310.84" y="-87.98" font-family="Helvetica,sans-Serif" font-size="9.00" fill="#173f25">amountCents : </text>
<text xml:space="preserve" text-anchor="start" x="371.87" y="-87.98" font-family="Helvetica,sans-Serif" font-size="9.00" fill="#5f6368">long</text>
<polygon fill="#2f855a" stroke="#2f855a" points="309.84,-108.88 309.84,-108.88 389.88,-108.88 389.88,-108.88 309.84,-108.88"/>
</g>
<!-- payment_list&#45;&gt;payments -->
<!-- recordpayment&#45;&gt;payments -->
<!-- recordpayment&#45;&gt;paymentrecorded -->
<!-- __ph_3_1 -->
<!-- payments&#45;&gt;__ph_3_1 -->
<!-- paymentrecorded&#45;&gt;__ph_3_1 -->
<g class="em-notes"></g><g class="em-issues"></g><g class="em-divergences"></g></g>
</svg>
